<svg xmlns="http://www.w3.org/2000/svg" xml:space="preserve" width="800.053px" height="189.581px" x="0px" y="0px" viewBox="0 0 211.68068 50.159973"><path fill="#706F6F" d="M211.293 10.935c-3.07-1.799-7.69-2.646-10.97-2.646-8.678 0-12.7 3.88-12.7 9.419 0 4.762 3.599 7.654 7.514 9.17 1.94.706 4.092 1.447 5.715 1.906 2.61.74 3.633 1.975 3.633 3.774 0 2.258-1.588 3.598-5.715 3.598-2.822 0-6.525-1.129-9.17-2.646l-2.47 5.503c3.386 1.94 7.937 2.963 11.711 2.963 8.113 0 12.84-4.056 12.84-9.665 0-5.326-2.822-7.196-5.997-8.571-1.234-.494-3.527-1.235-4.727-1.588-4.056-1.129-6.243-2.152-6.243-4.832 0-1.976 1.305-3.528 5.75-3.528 3.21 0 6.349 1.094 8.5 2.328zm-33.334-2.187v26.561h-.812l-9.383-26.561h-12.698v32.629h6.878V14.392h.882l9.277 26.985h12.699V8.748Zm-25.186 3.845c-2.822-3.14-7.443-4.339-11.605-4.339-9.63 0-15.486 5.75-15.486 16.826 0 10.582 4.515 16.826 15.415 16.826 4.057 0 8.325-.953 11.217-2.646l-1.622-5.432c-2.328 1.164-5.82 1.94-9.101 1.94-6.843 0-8.642-4.374-8.642-10.759 0-7.442 3.315-11.005 8.5-11.005 3.07 0 5.645 1.34 7.373 3.14z"/><path fill="#BE0737" d="M25.08 50.16c13.863 0 25.08-11.217 25.08-25.08C50.16 11.252 38.943 0 25.08 0 11.252 0 0 11.217 0 25.08c.035 13.863 11.252 25.08 25.08 25.08"/><path fill="#FFF" d="M26.103 14.074h-2.01V36.05h7.019v-1.94h-5.01zM17.108 20.071a2.996 2.996 0 0 0 2.998-2.998 2.996 2.996 0 0 0-2.998-2.999 2.996 2.996 0 0 0-2.998 2.999 2.996 2.996 0 0 0 2.998 2.998"/><path fill="#FFF" d="M26.103 4.127c-.247 0-.74-.035-1.023-.035-11.57 0-20.988 9.418-20.988 20.988 0 5.609 2.187 10.864 6.138 14.85 3.95 3.951 9.241 6.138 14.85 6.138s10.864-2.187 14.85-6.138c3.951-3.95 6.138-9.241 6.138-14.85v-.952H31.112v1.94h12.98v.282c-.67 9.877-8.924 17.743-18.977 17.743-5.08 0-9.841-1.976-13.44-5.574-3.632-3.562-5.608-8.36-5.608-13.439 0-5.08 1.976-9.842 5.574-13.44C15.238 8.043 20 6.067 25.08 6.067c.212 0 .776 0 1.023.035z"/><path fill="#706F6F" d="M101.272 28.96h6.138v5.715c-1.129.423-3.351.846-5.432.846-6.773 0-9.03-3.457-9.03-10.441 0-6.667 2.151-10.618 8.924-10.618 3.774 0 5.926 1.2 7.69 3.457l4.691-4.303c-2.857-4.092-7.866-5.327-12.557-5.327-10.547 0-16.12 5.75-16.12 16.756 0 10.935 5.008 16.86 16.05 16.86 5.079 0 10.017-1.304 12.698-3.174V22.893h-13.087v6.067zM69.067 8.748h-7.549v32.629h23.175v-6.35H69.067Z"/></svg>